<?xml version='1.0' encoding='iso-8859-1'?>
<!DOCTYPE svg PUBLIC '-//W3C//DTD SVG 1.1//EN' 'http://www.w3.org/Graphics/SVG/1.1/DTD/svg11.dtd'>
<!-- Uploaded to: SVG Repo, www.svgrepo.com, Generator: SVG Repo Mixer Tools -->
<svg fill="#000000" height="800px" width="800px" version="1.1" xmlns="http://www.w3.org/2000/svg" viewBox="0 0 446 446" xmlns:xlink="http://www.w3.org/1999/xlink" enable-background="new 0 0 446 446">
  <g>
    <path d="m438.5,56.5h-431c-4.142,0-7.5,3.358-7.5,7.5v298c0,4.142 3.358,7.5 7.5,7.5h19.5v6.232c0,7.591 6.176,13.768 13.768,13.768h50.465c7.591,0 13.768-6.176 13.768-13.768v-6.232h236v6.232c0,7.591 6.176,13.768 13.768,13.768h50.465c7.592,0 13.768-6.176 13.768-13.768v-6.232h19.5c4.143,0 7.5-3.358 7.5-7.5v-298c-0.002-4.142-3.359-7.5-7.502-7.5zm-7.5,249.5h-93.5v-234.5h93.5v234.5zm-416-234.5h312.5v283h-312.5v-283zm75,303h-48v-5h48v5zm314,0h-48v-5h48v5zm-66.5-20v-38.5h93.5v38.5h-93.5z"/>
    <path d="M295.459,347c12.153,0,22.041-9.888,22.041-22.041V101.041C317.5,88.888,307.613,79,295.459,79H44.541   C32.388,79,22.5,88.888,22.5,101.041v223.918C22.5,337.113,32.388,347,44.541,347H295.459z M32.5,324.959V101.041   C32.5,94.402,37.901,89,44.541,89h250.918c6.64,0,12.041,5.401,12.041,12.041v223.918c0,6.64-5.401,12.041-12.041,12.041H44.541   C37.901,337,32.5,331.599,32.5,324.959z"/>
    <path d="m292.5,327c2.762,0 5-2.239 5-5v-218c0-2.761-2.238-5-5-5h-245c-2.761,0-5,2.239-5,5v218c0,2.761 2.239,5 5,5h245zm-240-218h235v208h-235v-208z"/>
    <path d="M386,148c16.267,0,29.5-13.233,29.5-29.5S402.267,89,386,89s-29.5,13.233-29.5,29.5S369.734,148,386,148z M386,99   c10.752,0,19.5,8.748,19.5,19.5S396.752,138,386,138s-19.5-8.748-19.5-19.5S375.249,99,386,99z"/>
    <path d="m386,214.878c16.267,0 29.5-13.233 29.5-29.5s-13.233-29.5-29.5-29.5-29.5,13.233-29.5,29.5 13.234,29.5 29.5,29.5zm0-49c10.752,0 19.5,8.748 19.5,19.5s-8.748,19.5-19.5,19.5-19.5-8.748-19.5-19.5 8.749-19.5 19.5-19.5z"/>
    <path d="m361.5,268h49c2.762,0 5-2.239 5-5s-2.238-5-5-5h-49c-2.762,0-5,2.239-5,5s2.239,5 5,5z"/>
    <path d="m410.5,277h-49c-2.762,0-5,2.239-5,5s2.238,5 5,5h49c2.762,0 5-2.239 5-5s-2.238-5-5-5z"/>
    <path d="m262,297h-184c-2.761,0-5,2.239-5,5s2.239,5 5,5h184c2.762,0 5-2.239 5-5s-2.238-5-5-5z"/>
    <path d="m378.034,188.909c0.93-0.93 1.47-2.22 1.47-3.53 0-1.32-0.54-2.61-1.47-3.54-0.931-0.93-2.221-1.46-3.53-1.46-1.32,0-2.61,0.53-3.54,1.46s-1.46,2.22-1.46,3.54c0,1.31 0.53,2.6 1.46,3.53 0.93,0.93 2.22,1.47 3.54,1.47 1.309,0 2.599-0.54 3.53-1.47z"/>
    <path d="m378.034,122.039c0.93-0.93 1.47-2.22 1.47-3.54 0-1.32-0.54-2.6-1.47-3.53-0.931-0.93-2.221-1.47-3.53-1.47-1.32,0-2.61,0.54-3.54,1.47-0.93,0.93-1.46,2.22-1.46,3.53 0,1.32 0.53,2.61 1.46,3.54 0.93,0.93 2.22,1.46 3.54,1.46 1.309,0 2.599-0.53 3.53-1.46z"/>
  </g>
</svg>